<?xml version="1.0" encoding="utf-8"?><svg fill="#3BB300" xmlns="http://www.w3.org/2000/svg" xmlns:xlink="http://www.w3.org/1999/xlink" version="1.1" x="0px" y="0px" viewBox="0 0 100 100" style="enable-background:new 0 0 100 100;" xml:space="preserve"><g><path d="M79.7,41.8c0.6-5.2,1.2-10.3,2.4-15.3c1.1-5.1,2.4-10.2,2.7-15.4c0,0,0,0,0,0c0,0,0,0,0,0c-1.1,7.9-4.5,15.3-6.3,23   c-1.9,7.9-3.2,15.9-6,23.5c-1.8,4.7-4,9.3-6.9,13.4c-1.2,1.6-2.6,3.1-4.1,4.4c-1.4,1.1-3,2.1-4.6,2.9c-1.9,0.9-3.9,1.6-5.9,2.1   c-3.5,0.8-7.2,1.2-10.8,1.2c-3,0-6.1-0.2-9.1-0.4c-1.7-0.1-3.4-0.3-5.2-0.3c-0.4,0-0.9,0-1.3,0c1.5-1.5,2.9-3,4.3-4.5   c1.2-0.5,2.5-0.9,3.7-1.4c2.2-0.8,4.4-1.7,6.5-2.6c4.3-1.7,8.7-3.3,13.2-4.5c0,0,0,0,0,0c1-0.2,2.1-0.5,3.1-0.7c0,0,0,0,0,0   c0,0,0,0,0,0c-5.1,0.5-10,1.6-14.9,2.9c-2.4,0.7-4.9,1.4-7.3,2.2c-0.3,0.1-0.6,0.2-0.9,0.3c2-2.2,4.1-4.5,6.1-6.7c0,0,0.1,0,0.1,0   c2.3-1,4.4-2.2,6.6-3.4c1.4-0.8,2.8-1.6,4.1-2.5c0.1,0,0.2-0.1,0.3-0.1c3.7-1.9,7.2-3.9,10.9-5.7c0,0,0,0,0,0   c1.4-0.7,2.8-1.2,4.3-1.8c0.6-0.3,1.3-0.5,1.9-0.9c0.2-0.1,0.6-0.3,0.7-0.6c0,0,0,0,0,0c0,0,0,0,0,0c0,0,0,0,0,0c0,0,0,0,0,0   c0,0,0,0.1-0.1,0.1c0,0,0,0,0,0c-0.1,0.1-0.3,0.2-0.4,0.2c0,0,0,0,0,0c0,0,0,0,0,0c0,0,0,0,0,0c0,0,0,0,0,0c0,0,0,0,0,0   c-1.5,0.7-3.2,1.2-4.8,1.7c-2.5,0.8-4.9,1.9-7.4,3c-2.8,1.2-5.6,2.4-8.5,3.6c-1,0.4-2,0.9-3,1.4c3.2-3.4,6.4-6.6,9.7-10   c4-4.2,8-8.3,11.9-12.6c3.5-3.9,6.9-7.9,10.3-11.8c3.2-3.8,6.2-7.8,7.9-12.5c0,0,0,0,0,0c0,0,0,0,0,0c-1,2.5-2.4,4.8-4,7   c0,0,0,0,0,0c-3.2,4.4-7.1,8.2-10.7,12.2c-3.9,4.3-8,8.4-12.1,12.5c-4.6,4.5-9.2,8.8-13.9,13.1c0.2-0.6,0.3-1.1,0.5-1.7   c0.5-1.2,1-2.5,1.5-3.7c0,0,0.1-0.1,0.1-0.1c0,0,0,0,0,0c0,0,0,0,0,0c0-0.1,0.1-0.2,0.1-0.2c0.6-1.6,1.2-3.1,1.7-4.7   c1.1-3.2,2-6.3,3-9.5c0,0,0,0,0,0c0,0,0,0,0,0c-1.6,3.9-3.2,7.8-4.9,11.7c-0.8,1.9-1.7,3.9-2.6,5.8c-0.7,1.5-1.1,3.1-1.6,4.6   c-3,2.7-6,5.5-9.1,8.2c-0.4,0.4-0.8,0.8-1.3,1.1c0.2-2.3,0.4-4.6,0.6-6.9c0.3-3.5,0.8-7,2-10.3c0,0,0,0,0,0c0,0,0,0,0,0   c-1.7,3.1-2.8,6.6-3.6,10.1c-0.7,2.9-0.9,5.8-0.6,8.7c-0.8,0.7-1.6,1.4-2.4,2.1c-1.4,1.1-2.8,2.2-4.2,3.3c-0.1-2.1-0.2-4.1-0.1-6.2   c0.1-1.8,0.2-3.5,0.5-5.2c0.3-1.9,0.9-3.8,1.6-5.6c1.2-3.3,2.9-6.5,4.9-9.5c1.6-2.1,3.4-4.1,5.5-5.8c8-6.4,17.5-10.5,26.5-15.3   c2.3-1.2,4.6-2.5,6.8-3.9c2.2-1.4,4.3-3,6.4-4.6c4-3.2,7.8-6.7,11.6-10.2c0,0,0,0,0,0c0,0,0,0,0,0c-6.7,5.2-13.3,10.6-21,14.4   c-9.3,4.5-19.2,7.7-28,13.3c-2.3,1.5-4.6,3.1-6.6,5c-2,1.8-3.7,4-5.2,6.3c-1.5,2.2-2.5,4.7-3.4,7.2c-0.9,2.4-1.5,5-1.7,7.6   c-0.4,4.5,0.5,8.8,1.6,13.1c-0.4,0.3-0.8,0.6-1.2,0.9c-1.1,0.9-2.3,1.7-3.5,2.5c-0.6,0.5-1.3,0.9-1.9,1.4s-1.4,0.8-2,1.2   c-1,0.8-1.9,1.6-2.1,2.8c-0.2,1.3,0.4,2.6,1.6,3.1c1.5,0.6,3.4,0,4.6-1.1c0.7-0.6,1.4-1.3,2.1-1.9c1.7-1.4,3.4-2.9,5-4.5   c0.6,0.2,1.2,0.5,1.8,0.7c0.4,0.1,0.8,0.3,1.2,0.4c2.6,1,5.2,1.8,7.9,2.4c4.5,1,9.3,1,13.8,0.3c4.4-0.7,8.6-2.2,12.4-4.5   c4-2.4,7.3-5.7,9.9-9.5C76.3,63.2,78.3,52.3,79.7,41.8z M31.7,74.5C31.7,74.5,31.7,74.4,31.7,74.5C31.7,74.5,31.7,74.5,31.7,74.5   C31.7,74.5,31.7,74.5,31.7,74.5z"></path><polygon points="66.7,51.3 66.7,51.3 66.7,51.3  "></polygon><path d="M66.7,51.3C66.7,51.3,66.7,51.3,66.7,51.3C66.7,51.3,66.7,51.3,66.7,51.3C66.7,51.3,66.7,51.3,66.7,51.3z"></path></g></svg>