<?xml version="1.0" encoding="UTF-8" standalone="no"?><!DOCTYPE svg PUBLIC "-//W3C//DTD SVG 1.1//EN" "http://www.w3.org/Graphics/SVG/1.1/DTD/svg11.dtd"><svg width="100%" height="100%" viewBox="0 0 250 207" version="1.1" xmlns="http://www.w3.org/2000/svg" xmlns:xlink="http://www.w3.org/1999/xlink" xml:space="preserve" xmlns:serif="http://www.serif.com/" style="fill-rule:evenodd;clip-rule:evenodd;stroke-linejoin:round;stroke-miterlimit:1.41421;"><g><path d="M123.316,184.618l-5.094,-10.261l-2.646,4.63c-2.359,4.131 -0.924,9.395 3.207,11.756c3.107,1.775 6.855,1.4 9.527,-0.652c-2.102,-1.286 -3.845,-3.158 -4.994,-5.473Z" style="fill:#f63;fill-rule:nonzero;"/><path d="M154.325,145.915l8.578,2.971l-5.174,43.99c-0.555,4.723 2.828,9.006 7.553,9.561c4.723,0.555 9.006,-2.826 9.563,-7.549l6.658,-56.621l0.192,-0.555l-35.791,-12.396l-0.537,1.55l-11.16,19.525l9.225,18.584l10.893,-19.06Z" style="fill:#f63;fill-rule:nonzero;"/><path d="M182.816,134.474l11.536,-33.315c0.082,-0.029 0.164,-0.051 0.242,-0.084l51.249,-21.592c2.961,-1.246 4.348,-4.654 3.102,-7.613c-1.244,-2.959 -4.654,-4.346 -7.613,-3.1l-47.673,20.086c-0.092,-0.039 -0.182,-0.079 -0.277,-0.112l-24.822,-8.597l-23.741,-43.339c-1.543,-2.814 -5.074,-3.847 -7.889,-2.306c-2.814,1.545 -3.848,5.076 -2.305,7.89l24.505,44.736l-12.104,34.951l35.79,12.395Z" style="fill:#f63;fill-rule:nonzero;"/><path d="M170.871,58.073c3.136,-9.055 13.033,-13.86 22.087,-10.724c9.054,3.136 13.858,13.034 10.722,22.089c-3.137,9.054 -13.034,13.86 -22.088,10.724c-9.054,-3.137 -13.858,-13.034 -10.721,-22.089Z" style="fill:#f63;"/><path d="M126.002,183.284c2.549,5.131 8.775,7.227 13.908,4.68c5.131,-2.547 7.227,-8.775 4.682,-13.906l-30.531,-61.504l-0.162,-0.647l-44.262,11.039l0.469,1.878l4.234,72.184c0.336,5.719 5.246,10.084 10.967,9.748c5.719,-0.334 10.084,-5.244 9.748,-10.965l-3.381,-57.641l10.609,-2.646l23.719,47.78Z" style="fill:#f63;fill-rule:nonzero;"/><path d="M112.84,107.66l-10.227,-40.995c0.063,-0.083 0.131,-0.158 0.189,-0.244l37.5,-55.5c2.166,-3.203 1.322,-7.555 -1.881,-9.721c-3.203,-2.164 -7.555,-1.321 -9.721,1.882l-34.882,51.627c-0.117,0.023 -0.234,0.04 -0.354,0.069l-30.697,7.656l-52.46,-28.103c-3.408,-1.825 -7.65,-0.543 -9.477,2.864c-1.824,3.409 -0.541,7.649 2.865,9.476l54.152,29.012l10.73,43.019l44.263,-11.042Z" style="fill:#f63;fill-rule:nonzero;"/><path d="M65.795,13.289c11.198,-2.793 22.557,4.031 25.35,15.23c2.793,11.199 -4.031,22.559 -15.229,25.351c-11.197,2.793 -22.556,-4.031 -25.349,-15.23c-2.793,-11.199 4.03,-22.559 15.228,-25.351Z" style="fill:#f63;"/></g></svg>