<?xml version="1.0" encoding="UTF-8" standalone="no"?><!DOCTYPE svg PUBLIC "-//W3C//DTD SVG 1.1//EN" "http://www.w3.org/Graphics/SVG/1.1/DTD/svg11.dtd"><svg width="100%" height="100%" viewBox="0 0 100 100" version="1.1" xmlns="http://www.w3.org/2000/svg" xmlns:xlink="http://www.w3.org/1999/xlink" xml:space="preserve" xmlns:serif="http://www.serif.com/" style="fill-rule:evenodd;clip-rule:evenodd;stroke-linejoin:round;stroke-miterlimit:1.41421;"><path d="M25.762,93.288l-25.307,6.175l-0.455,-0.448l6.63,-25.313l59.352,-59.053c1.055,-0.3 3.618,-1.054 7.229,-0.3l-62.964,62.97l-1.806,6.627l7.23,7.232l6.775,-1.809l3.018,-2.863l0.297,-6.778l-4.818,-4.821l57.699,-57.695c0.903,0.751 0.903,0.751 1.806,1.806c8.588,8.438 4.667,14.914 4.667,14.914l-59.353,59.356Zm69.599,-69.598l-5.575,5.572c0,0 4.218,-6.478 -4.521,-14.914c-7.685,-7.681 -14.914,-4.37 -14.914,-4.37l5.878,-5.875c5.272,-5.421 14.46,-5.421 19.58,-0.3c6.025,5.577 5.273,14.161 -0.448,19.887Z" style="fill:#033;fill-rule:nonzero;"/></svg>